<svg aria-hidden="true" style="position:absolute;width:0;height:0;overflow:hidden" xmlns="http://www.w3.org/2000/svg"><defs><symbol id="icon-antenna" viewBox="0 0 32 32"><path fill="#212121" style="fill:var(--color1, #212121)" d="m30.773 22.098-8.443-8.505.937-4.615c.242.094.499.144.758.146h.006a2.159 2.159 0 1 0-2.008-1.435l-4.96.605L8.972.161a.534.534 0 0 0-.377-.16.532.532 0 0 0-.373.155L6.709 1.66a.534.534 0 0 0 0 .754l.814.826a14.943 14.943 0 0 0 2.519 17.663.513.513 0 0 0 .146.098c-.034.18-.051.364-.052.547v6.187h-6.4a2.67 2.67 0 0 0-2.667 2.667v1.067c0 .295.239.533.533.533h24.533a.533.533 0 0 0 .533-.533v-1.067a2.67 2.67 0 0 0-2.667-2.667h-6.4v-2.742a15.09 15.09 0 0 0 3.049.32 14.854 14.854 0 0 0 7.04-1.783l.818.823a.534.534 0 0 0 .377.16.532.532 0 0 0 .373-.155l1.513-1.504a.534.534 0 0 0 0-.754zM23.28 6.233a1.066 1.066 0 1 1 .752 1.822h-.003a1.067 1.067 0 0 1-.747-1.823h-.002zm-1.256 3.505-.598 2.946-1.175-1.182 1.774-1.763zm-.605-.902-1.92 1.909-1.485-1.493 3.405-.415zM24.004 28.8a1.6 1.6 0 0 1 1.6 1.6v.533H2.137V30.4a1.6 1.6 0 0 1 1.6-1.6h20.267zm-7.467-2.133v1.067h-5.333v-1.067h5.333zM11.204 25.6v-4.053c0-1.294 1.196-2.347 2.667-2.347s2.667 1.053 2.667 2.347V25.6h-5.333zm6.4-1.696v-2.357c0-1.882-1.675-3.413-3.733-3.413a3.8 3.8 0 0 0-3.281 1.786A13.87 13.87 0 0 1 8.311 4.033l18.602 18.708a13.818 13.818 0 0 1-9.309 1.163zm11.289-.684L7.836 2.039l.755-.752 7.935 7.98c.004 0 .006.007.01.01l13.115 13.191-.757.752z"/><path fill="#2196f3" style="fill:var(--color2, #2196f3)" d="M13.876 20.267h-.005a1.6 1.6 0 1 0-.004 3.2h.005a1.6 1.6 0 1 0 .004-3.2zm.373 1.978a.534.534 0 0 1-.752-.756.534.534 0 0 1 .373-.155.532.532 0 0 1 .373.911h.005z"/></symbol><symbol id="icon-apple" viewBox="0 0 26 32"><path d="M14.393 2.785C16.496.014 19.419 0 19.419 0s.435 2.605-1.654 5.115C15.535 7.795 13 7.356 13 7.356s-.476-2.108 1.394-4.572zm-1.126 6.397c1.082 0 3.089-1.487 5.702-1.487 4.498 0 6.267 3.201 6.267 3.201s-3.461 1.769-3.461 6.063c0 4.843 4.311 6.512 4.311 6.512s-3.014 8.482-7.084 8.482c-1.87 0-3.323-1.26-5.293-1.26-2.008 0-4 1.307-5.297 1.307-3.717 0-8.413-8.046-8.413-14.514 0-6.364 3.975-9.702 7.703-9.702 2.424 0 4.304 1.398 5.565 1.398z"/></symbol><symbol id="icon-astro" viewBox="0 0 32 32"><path fill="#2196f3" style="fill:var(--color2, #2196f3)" d="M31.974 4.524a.534.534 0 0 0-.43-.363l-1.91-.278-.855-1.731c-.179-.365-.777-.365-.956 0l-.855 1.731-1.91.278a.535.535 0 0 0-.296.91l1.383 1.348-.326 1.903c-.034.2.048.402.212.522a.53.53 0 0 0 .562.04l1.709-.899 1.709.899a.536.536 0 0 0 .775-.563l-.326-1.903 1.383-1.348a.536.536 0 0 0 .135-.547zm-2.463 1.327a.534.534 0 0 0-.153.472l.191 1.114-1-.526a.533.533 0 0 0-.498 0l-1.001.526.191-1.114a.534.534 0 0 0-.153-.472l-.81-.789 1.119-.163a.532.532 0 0 0 .402-.292l.5-1.013.5 1.013a.535.535 0 0 0 .402.292l1.119.163-.809.789zm-3.377 14.671h-1.067v1.067h1.067v-1.067zm0 2.134h-1.067v1.067h1.067v-1.067zm1.066-1.067h-1.067v1.067H27.2v-1.067zm-2.133 0H24v1.067h1.067v-1.067zm-2.667 4.8h-1.067v1.067H22.4v-1.067zm0 2.133h-1.067v1.067H22.4v-1.067zm1.067-1.066H22.4v1.067h1.067v-1.067zm-2.134 0h-1.067v1.067h1.067v-1.067zM16 24.256h-1.067v1.067H16v-1.067zm0 2.133h-1.067v1.067H16v-1.067zm1.067-1.067H16v1.067h1.067v-1.067zm-2.134 0h-1.067v1.067h1.067v-1.067zm-9.066-19.2H4.8v1.067h1.067V6.122zm0 2.133H4.8v1.067h1.067V8.255z"/><path fill="#2196f3" style="fill:var(--color2, #2196f3)" d="M6.933 7.189H5.866v1.067h1.067V7.189zm-2.133 0H3.733v1.067H4.8V7.189z"/><path fill="#212121" style="fill:var(--color1, #212121)" d="M24.715 14.159a1.775 1.775 0 0 0-1.188-.705 1.778 1.778 0 0 0-1.34.352l-1.252.96-1.898 1.417-1.358-.541c2.421-1.086 4.114-3.508 4.114-6.32 0-3.823-3.123-6.933-6.961-6.933s-6.961 3.11-6.961 6.933a6.86 6.86 0 0 0 1.12 3.758l-2.764-.024h-.005c-.009 0-.015.004-.023.005a.515.515 0 0 0-.155.031l-.038.013c-.006.003-.013.003-.019.006l-3.233 1.596-.001.001-1.893.911a.397.397 0 0 0-.063.035 1.779 1.779 0 0 0-.598 2.295c.22.429.595.745 1.056.889a1.776 1.776 0 0 0 1.378-.128l1.388-.738 2.264-1.169 1.357-.008L2.2 22.211l-.002.001-1.339 1.333c-.316.315-.49.732-.49 1.178s.174.863.49 1.179c.325.323.752.485 1.179.485s.854-.162 1.18-.485l1.314-1.309 1.741-1.3.901.897-1.762 1.754-.002.001-1.339 1.333c-.316.315-.49.732-.49 1.178s.174.863.49 1.179c.325.323.753.485 1.18.485s.855-.162 1.18-.485l3.482-3.467.001-.002 1.01-1-.004-.004c.006-.006.015-.009.022-.015l5.166-5.658 3.471.494a.52.52 0 0 0 .262-.033c.018-.006.033-.015.05-.023.019-.01.039-.015.058-.027l3.213-2.133c.012-.008.018-.021.029-.029.013-.01.029-.014.041-.026l1.271-1.191c.662-.62.753-1.635.212-2.362zM2.13 17.77a.714.714 0 0 1-.558.052.717.717 0 0 1-.213-1.26l1.314-.632.449 1.312-.992.528zm3.498-1.828-1.548.8-.439-1.283 2.027-1.001-.04 1.484zm15.099-6.62a5.79 5.79 0 0 1-.599 2.559l-4.181-1.899a1.863 1.863 0 0 0-.788-1.388l1.464-4.86c2.378.756 4.105 2.974 4.105 5.588zm-11.789 0c0-3.235 2.644-5.867 5.894-5.867.253 0 .5.021.745.052l-1.432 4.754c-.019-.001-.037-.006-.057-.006-1.033 0-1.873.837-1.873 1.867s.84 1.867 1.873 1.867c.694 0 1.294-.383 1.618-.945l3.862 1.755a5.894 5.894 0 0 1-4.737 2.39c-3.25 0-5.894-2.632-5.894-5.867zm5.956.8c0 .441-.362.8-.806.8s-.806-.359-.806-.8c0-.441.362-.8.806-.8s.806.359.806.8zM2.465 25.146a.608.608 0 0 1-.854.001.592.592 0 0 1 0-.844l.962-.958.851.848-.959.955zm3.214 3.734a.608.608 0 0 1-.855.001.592.592 0 0 1 0-.844l.963-.959.852.848-.96.955zm3.481-3.469-.002.001-1.765 1.76-.852-.848 1.763-1.755.002-.001c.04-.04.065-.088.09-.135.007-.014.02-.026.026-.04.017-.041.019-.085.026-.129.003-.025.014-.047.014-.073 0-.036-.013-.07-.02-.106-.006-.032-.006-.065-.019-.095a.55.55 0 0 0-.091-.138c-.01-.012-.014-.027-.025-.038h-.001l-.001-.002-1.607-1.6c-.017-.017-.039-.024-.058-.038a.507.507 0 0 0-.087-.058.515.515 0 0 0-.093-.033.507.507 0 0 0-.103-.02.5.5 0 0 0-.095.005.53.53 0 0 0-.104.02.477.477 0 0 0-.094.045c-.02.011-.042.015-.061.029L4.23 23.486l-.901-.897 2.399-2.386 4.361 4.289-.928.919zm6.819-7.017c-.015-.002-.03.004-.045.003a.556.556 0 0 0-.3.075.492.492 0 0 0-.083.061c-.013.011-.028.017-.04.029l-4.698 5.146-4.328-4.257 2.833-2.818a.534.534 0 0 0-.379-.911v-.001l-2.219.013.028-1.607 3.104.027a6.947 6.947 0 0 0 4.981 2.101c.437 0 .864-.045 1.279-.123.04.032.079.065.13.085l2.41.96.331 1.644-3.003-.427zm4.041.178-.313-1.558 1.446-1.08.947 1.257-2.08 1.381zm3.754-2.831-.838.785-.931-1.236.831-.637a.735.735 0 0 1 .543-.143.718.718 0 0 1 .48.284.713.713 0 0 1-.085.947z"/><path fill="#212121" style="fill:var(--color1, #212121)" d="m13.602 18.544-2.143-2.133a.534.534 0 0 0-.753 0l-2.142 2.133a.537.537 0 0 0 0 .756l2.142 2.133a.536.536 0 0 0 .753 0l2.143-2.133a.535.535 0 0 0 0-.756zm-2.519 1.759-1.387-1.381 1.387-1.381 1.387 1.381-1.387 1.381zm6.081-15.232-.258 1.036c.071.018 1.738.452 1.738 2.149h1.067c0-2.017-1.666-2.965-2.547-3.185zm2.547 4.251h-1.067v1.067h1.067V9.322z"/></symbol><symbol id="icon-clock" viewBox="0 0 32 32"><path fill="#212121" style="fill:var(--color1, #212121)" d="M31.297 15.301C31.295 6.849 24.442-.002 15.989 0S.686 6.855.688 15.308a15.304 15.304 0 0 0 10.649 14.576.662.662 0 0 0 .529-.065.637.637 0 0 0 .283-.356l3.865-12.25a1.912 1.912 0 1 0-.84-3.635l-5.106-5.107a.637.637 0 0 0-.902.902l5.103 5.109a1.876 1.876 0 0 0 .536 2.309l-3.683 11.673C3.844 25.783.118 17.71 2.799 10.432S13.553-.572 20.831 2.109s11.004 10.754 8.323 18.032a14.042 14.042 0 0 1-7.462 7.973l-.398-1.874a.638.638 0 0 0-1.048-.344l-3.837 3.426a.637.637 0 0 0 .231 1.084l4.899 1.563a.638.638 0 0 0 .819-.74l-.391-1.839a15.255 15.255 0 0 0 9.329-14.089zm-15.305-.637a.638.638 0 1 1 0 1.277.638.638 0 0 1 0-1.277zm2.101 14.864 2.184-1.948.603 2.84-2.787-.892z"/><path fill="#2196f3" style="fill:var(--color2, #2196f3)" d="M15.354 3.185V4.46a.638.638 0 1 0 1.276 0V3.185a.638.638 0 0 0-1.276 0zM3.876 14.664a.638.638 0 0 0 0 1.276h1.275a.638.638 0 1 0 0-1.276H3.876zm24.232 1.275a.638.638 0 1 0 0-1.276h-1.275a.638.638 0 0 0 0 1.276h1.275z"/></symbol><symbol id="icon-diagram" viewBox="0 0 32 32"><path fill="#2196f3" style="fill:var(--color2, #2196f3)" d="M14.926 14.965h1.066v4.798h-1.066v-4.797zm4.264 2.132h1.066v2.665H19.19v-2.665zm-8.529 1.599h1.066v1.066h-1.066v-1.066zm-3.198-.533h1.066v1.599H7.463v-1.599z"/><path fill="#212121" style="fill:var(--color1, #212121)" d="M1.599 28.291h25.587a1.6 1.6 0 0 0 1.599-1.599V24.56a1.6 1.6 0 0 0-1.599-1.599h-.533V9.668L29.681 6.8a1.608 1.608 0 1 0-.746-.763L26.654 8.2V6.97a1.6 1.6 0 0 0-1.599-1.599H3.733A1.6 1.6 0 0 0 2.134 6.97v15.992h-.533a1.6 1.6 0 0 0-1.599 1.599v2.132a1.6 1.6 0 0 0 1.599 1.599zM30.384 4.837a.533.533 0 1 1 0 1.067.533.533 0 0 1 0-1.067zM3.198 6.969c0-.294.239-.533.533-.533h21.322c.294 0 .533.239.533.533v2.239l-1.066 1.013V8.035a.533.533 0 0 0-.533-.533H4.797a.533.533 0 0 0-.533.533v13.326c0 .294.239.533.533.533h19.19a.533.533 0 0 0 .533-.533v-9.674l1.066-1.01v12.284H3.198V6.969zm4.798 6.93a1.598 1.598 0 1 0 1.107 2.749l1.853.93a.532.532 0 0 0 .636-.123l3.939-4.431 3.872 2.901a.533.533 0 0 0 .686-.039l3.365-3.188v8.131H5.33V8.569h18.124v2.66l-3.771 3.572-3.904-2.927a.533.533 0 0 0-.718.072l-3.993 4.493-1.493-.746c.011-.064.018-.129.02-.193a1.6 1.6 0 0 0-1.599-1.599zm.533 1.599a.533.533 0 1 1-1.067 0 .533.533 0 0 1 1.067 0zm3.198 8.529h5.331v.533a.533.533 0 0 1-.533.533h-4.264a.533.533 0 0 1-.533-.533v-.533zm-10.661.533c0-.294.239-.533.533-.533h9.062v.533a1.6 1.6 0 0 0 1.599 1.599h4.264a1.6 1.6 0 0 0 1.599-1.599v-.533h9.062c.294 0 .533.239.533.533v2.132a.533.533 0 0 1-.533.533H1.598a.533.533 0 0 1-.533-.533V24.56z"/></symbol><symbol id="icon-envelope" viewBox="0 0 32 32"><path d="M29 4H3C1.346 4 0 5.346 0 7v18c0 1.654 1.346 3 3 3h26c1.654 0 3-1.346 3-3V7c0-1.654-1.346-3-3-3zm0 2c.136 0 .265.028.383.077L16 17.676 2.617 6.077A.996.996 0 0 1 3 6h26zm0 20H3a1 1 0 0 1-1-1V8.19l13.345 11.565a.998.998 0 0 0 1.31 0L30 8.19V25a1 1 0 0 1-1 1z"/></symbol><symbol id="icon-fb_g" viewBox="0 0 32 32"><path d="M21.329 5.313h2.921V.225C23.746.156 22.013 0 19.994 0c-4.212 0-7.097 2.649-7.097 7.519V12H8.249v5.688h4.648V32h5.699V17.689h4.46l.708-5.688h-5.169V8.082c.001-1.644.444-2.769 2.735-2.769z"/></symbol><symbol id="icon-fb_w" viewBox="0 0 32 32"><path fill="#fff" style="fill:var(--color6, #fff)" d="M21.329 5.313h2.921V.225C23.746.156 22.013 0 19.994 0c-4.212 0-7.097 2.649-7.097 7.519V12H8.249v5.688h4.648V32h5.699V17.689h4.46l.708-5.688h-5.169V8.082c.001-1.644.444-2.769 2.735-2.769z"/></symbol><symbol id="icon-insta_g" viewBox="0 0 32 32"><path d="M31.969 9.408c-.075-1.7-.35-2.869-.744-3.882a7.806 7.806 0 0 0-1.851-2.838A7.867 7.867 0 0 0 26.542.844C25.523.45 24.36.175 22.66.1 20.947.019 20.403 0 16.059 0s-4.888.019-6.595.094c-1.7.075-2.869.35-3.882.744a7.803 7.803 0 0 0-2.838 1.85A7.867 7.867 0 0 0 .9 5.52C.506 6.539.231 7.702.156 9.402c-.081 1.713-.1 2.257-.1 6.601s.019 4.888.094 6.595c.075 1.7.35 2.869.744 3.882a7.895 7.895 0 0 0 1.85 2.838 7.867 7.867 0 0 0 2.832 1.844c1.019.394 2.182.669 3.882.744 1.706.075 2.25.094 6.595.094s4.888-.019 6.595-.094c1.7-.075 2.869-.35 3.882-.744a8.184 8.184 0 0 0 4.682-4.682c.394-1.019.669-2.182.744-3.882.075-1.707.094-2.251.094-6.595s-.006-4.888-.081-6.595zm-2.882 13.065c-.069 1.563-.331 2.407-.55 2.969a5.31 5.31 0 0 1-3.038 3.038c-.563.219-1.413.481-2.969.55-1.688.075-2.194.094-6.464.094s-4.782-.019-6.464-.094c-1.563-.069-2.407-.331-2.969-.55a4.926 4.926 0 0 1-1.838-1.194 4.974 4.974 0 0 1-1.194-1.838c-.219-.563-.481-1.413-.55-2.969-.075-1.688-.094-2.194-.094-6.464s.019-4.782.094-6.464c.069-1.563.331-2.407.55-2.969a4.868 4.868 0 0 1 1.2-1.838A4.974 4.974 0 0 1 6.639 3.55c.563-.219 1.413-.481 2.969-.55 1.688-.075 2.194-.094 6.464-.094 4.276 0 4.782.019 6.464.094 1.563.069 2.407.331 2.969.55a4.914 4.914 0 0 1 1.838 1.194 4.974 4.974 0 0 1 1.194 1.838c.219.563.481 1.413.55 2.969.075 1.688.094 2.194.094 6.464s-.019 4.77-.094 6.458z"/><path d="M16.059 7.783c-4.538 0-8.22 3.682-8.22 8.22s3.682 8.22 8.22 8.22c4.539 0 8.22-3.682 8.22-8.22s-3.682-8.22-8.22-8.22zm0 13.552a5.333 5.333 0 0 1 0-10.664 5.333 5.333 0 0 1 0 10.664zM26.524 7.458a1.919 1.919 0 1 1-3.838 0 1.919 1.919 0 0 1 3.838 0z"/></symbol><symbol id="icon-insta_w" viewBox="0 0 32 32"><path fill="#fff" style="fill:var(--color6, #fff)" d="M31.969 9.408c-.075-1.7-.35-2.869-.744-3.882a7.806 7.806 0 0 0-1.851-2.838A7.867 7.867 0 0 0 26.542.844C25.523.45 24.36.175 22.66.1 20.947.019 20.403 0 16.059 0s-4.888.019-6.595.094c-1.7.075-2.869.35-3.882.744a7.803 7.803 0 0 0-2.838 1.85A7.867 7.867 0 0 0 .9 5.52C.506 6.539.231 7.702.156 9.402c-.081 1.713-.1 2.257-.1 6.601s.019 4.888.094 6.595c.075 1.7.35 2.869.744 3.882a7.895 7.895 0 0 0 1.85 2.838 7.867 7.867 0 0 0 2.832 1.844c1.019.394 2.182.669 3.882.744 1.706.075 2.25.094 6.595.094s4.888-.019 6.595-.094c1.7-.075 2.869-.35 3.882-.744a8.184 8.184 0 0 0 4.682-4.682c.394-1.019.669-2.182.744-3.882.075-1.707.094-2.251.094-6.595s-.006-4.888-.081-6.595zm-2.882 13.065c-.069 1.563-.331 2.407-.55 2.969a5.31 5.31 0 0 1-3.038 3.038c-.563.219-1.413.481-2.969.55-1.688.075-2.194.094-6.464.094s-4.782-.019-6.464-.094c-1.563-.069-2.407-.331-2.969-.55a4.926 4.926 0 0 1-1.838-1.194 4.974 4.974 0 0 1-1.194-1.838c-.219-.563-.481-1.413-.55-2.969-.075-1.688-.094-2.194-.094-6.464s.019-4.782.094-6.464c.069-1.563.331-2.407.55-2.969a4.868 4.868 0 0 1 1.2-1.838A4.974 4.974 0 0 1 6.639 3.55c.563-.219 1.413-.481 2.969-.55 1.688-.075 2.194-.094 6.464-.094 4.276 0 4.782.019 6.464.094 1.563.069 2.407.331 2.969.55a4.914 4.914 0 0 1 1.838 1.194 4.974 4.974 0 0 1 1.194 1.838c.219.563.481 1.413.55 2.969.075 1.688.094 2.194.094 6.464s-.019 4.77-.094 6.458z"/><path fill="#fff" style="fill:var(--color6, #fff)" d="M16.059 7.783c-4.538 0-8.22 3.682-8.22 8.22s3.682 8.22 8.22 8.22c4.539 0 8.22-3.682 8.22-8.22s-3.682-8.22-8.22-8.22zm0 13.552a5.333 5.333 0 0 1 0-10.664 5.333 5.333 0 0 1 0 10.664zM26.524 7.458a1.919 1.919 0 1 1-3.838 0 1.919 1.919 0 0 1 3.838 0z"/></symbol><symbol id="icon-link_b" viewBox="0 0 32 32"><path style="fill:var(--color7, #000)" d="M32 16c0 8.837-7.163 16-16 16S0 24.837 0 16 7.163 0 16 0s16 7.163 16 16z"/><path fill="#fff" style="fill:var(--color6, #fff)" d="M9.328 12.668h3.087v9.956H9.328v-9.956zm10.951-.2c-1.191-.1-2.289.595-2.887 1.594v-1.395h-2.986v9.956h3.085v-4.977c0-1.295.298-2.59 1.892-2.59s1.593 1.488 1.593 2.688v4.879h3.087l-.1-5.376c0-2.688-.499-4.779-3.684-4.779zm-7.665-2.986a1.792 1.792 0 1 1-3.583 0 1.792 1.792 0 0 1 3.583 0z"/></symbol><symbol id="icon-link_g" viewBox="0 0 32 32"><path d="M31.992 32v-.001H32V20.263c0-5.741-1.236-10.164-7.948-10.164-3.227 0-5.392 1.771-6.276 3.449h-.093v-2.913h-6.364v21.364h6.627V21.42c0-2.785.528-5.479 3.977-5.479 3.399 0 3.449 3.179 3.449 5.657v10.401h6.62zM.528 10.636h6.635V32H.528V10.636zM3.843 0C1.722 0 0 1.721 0 3.843s1.721 3.879 3.843 3.879c2.121 0 3.843-1.757 3.843-3.879A3.846 3.846 0 0 0 3.843 0z"/></symbol><symbol id="icon-link_w" viewBox="0 0 32 32"><path fill="#fff" style="fill:var(--color6, #fff)" d="M31.992 32v-.001H32V20.263c0-5.741-1.236-10.164-7.948-10.164-3.227 0-5.392 1.771-6.276 3.449h-.093v-2.913h-6.364v21.364h6.627V21.42c0-2.785.528-5.479 3.977-5.479 3.399 0 3.449 3.179 3.449 5.657v10.401h6.62zM.528 10.636h6.635V32H.528V10.636zM3.843 0C1.722 0 0 1.721 0 3.843s1.721 3.879 3.843 3.879c2.121 0 3.843-1.757 3.843-3.879A3.846 3.846 0 0 0 3.843 0z"/></symbol><symbol id="icon-microsoft" viewBox="0 0 32 32"><path d="M32 15.675v-.563h-.699v-.875l-.024.007-.669.205v.663h-1.036v-.369c0-.172.038-.304.114-.391a.402.402 0 0 1 .32-.131c.099 0 .201.023.304.069l.026.011v-.593l-.012-.004a1.195 1.195 0 0 0-.388-.052c-.204 0-.389.044-.551.132s-.289.214-.378.373c-.089.16-.134.344-.134.548v.406h-.487v.563h.487v2.371h.699v-2.371h1.036v1.507c0 .62.293.935.87.935.095 0 .195-.011.297-.033a.798.798 0 0 0 .216-.069l.009-.005v-.568l-.028.019c-.038.025-.085.046-.14.061s-.102.023-.138.023c-.135 0-.235-.036-.297-.108s-.095-.199-.095-.377v-1.385h.699zm-5.173 1.87c-.254 0-.453-.084-.594-.25s-.214-.404-.214-.705c0-.311.072-.555.214-.724.141-.168.339-.254.589-.254.242 0 .435.082.573.243s.209.403.209.718c0 .319-.066.563-.197.727-.13.162-.325.245-.58.245zm.031-2.504c-.484 0-.868.142-1.142.421s-.413.666-.413 1.15c0 .459.136.829.403 1.098s.631.406 1.081.406c.469 0 .845-.144 1.119-.427s.413-.666.413-1.139c0-.466-.13-.839-.387-1.106s-.618-.403-1.074-.403zm-2.681 0c-.329 0-.601.084-.809.25a.799.799 0 0 0-.315.651c0 .138.023.26.068.364s.116.196.209.273c.093.076.235.156.425.238.159.065.278.121.353.165.074.043.126.086.155.128s.043.097.043.166c0 .197-.148.293-.451.293-.113 0-.241-.024-.382-.07a1.426 1.426 0 0 1-.395-.201l.004.003-.029-.021v.673l.011.005c.099.046.223.084.37.114s.28.046.396.046c.357 0 .645-.085.854-.252a.813.813 0 0 0 .318-.666.769.769 0 0 0-.171-.504c-.113-.136-.308-.26-.581-.37-.218-.087-.357-.16-.414-.215a.304.304 0 0 1-.084-.226c0-.085.035-.154.106-.209s.172-.084.297-.084a1.223 1.223 0 0 1 .663.197l.029.02v-.638l-.011-.005c-.08-.034-.186-.064-.314-.088s-.243-.036-.344-.036zm-2.945 2.504c-.253 0-.453-.084-.594-.25s-.213-.404-.213-.705c0-.311.072-.555.214-.724.141-.168.339-.254.589-.254.242 0 .435.082.573.243s.209.403.209.718c0 .319-.066.563-.197.727-.13.162-.325.245-.58.245zm.031-2.504c-.484 0-.868.142-1.142.421s-.413.666-.413 1.15c0 .459.136.829.403 1.098s.631.406 1.081.406c.469 0 .846-.144 1.119-.427s.413-.666.413-1.139c0-.466-.13-.839-.387-1.106s-.618-.403-1.074-.403zm-2.615.579v-.508h-.69v2.934h.69v-1.501c0-.255.058-.465.172-.623a.53.53 0 0 1 .446-.236c.062 0 .132.01.207.031s.129.042.161.065l.029.021v-.696l-.011-.005a.719.719 0 0 0-.27-.041.713.713 0 0 0-.462.165.928.928 0 0 0-.265.393h-.007zm-1.926-.579c-.317 0-.599.068-.839.202s-.427.326-.553.569c-.126.243-.19.527-.19.843 0 .277.062.532.185.756s.296.4.516.522c.22.122.473.183.754.183.328 0 .608-.066.832-.195l.009-.005v-.632l-.029.021c-.102.074-.215.133-.338.176s-.233.064-.331.064c-.271 0-.488-.085-.646-.252s-.238-.402-.238-.698c0-.297.084-.538.248-.716s.382-.267.647-.267c.227 0 .448.077.657.228l.029.021v-.666l-.009-.005c-.079-.044-.186-.08-.319-.108s-.262-.041-.386-.041zm-2.058.071h-.69v2.934h.69v-2.934zm-.338-1.25c-.114 0-.213.039-.294.115s-.123.174-.123.288c0 .112.041.207.122.282s.18.112.295.112.215-.038.297-.112a.368.368 0 0 0 .123-.282c0-.11-.04-.206-.12-.285s-.181-.118-.3-.118zm-1.722 1.034v3.15h.704v-4.093h-.975l-1.239 3.04-1.202-3.04H8.878v4.093h.662v-3.15h.023l1.27 3.15h.499l1.25-3.15h.023z"/><path d="M3.246 15.83H0v-3.246h3.246v3.246z"/><path d="M6.83 15.83H3.584v-3.246H6.83v3.246z"/><path d="M3.246 19.416H0V16.17h3.246v3.246z"/><path d="M6.83 19.416H3.584V16.17H6.83v3.246z"/></symbol><symbol id="icon-samsung" viewBox="0 0 32 32"><path d="M31.98 13.217c-.435-2.498-7.942-3.278-16.768-1.742-3.707.646-7.053 1.598-9.66 2.669.4.009.697.101.878.28.141.141.212.335.212.576v.248h-.865v-.219c0-.182-.109-.295-.303-.295-.163 0-.263.073-.295.218a.453.453 0 0 0 .004.176l-.001-.003c.093.379 1.378.614 1.517 1.312.018.09.043.282.004.558-.08.563-.575.781-1.205.781-.88 0-1.237-.417-1.237-.991l.001-.272h.928v.339c0 .19.138.295.327.295.178 0 .283-.072.319-.219a.43.43 0 0 0-.006-.243c-.172-.431-1.372-.632-1.519-1.328a1.154 1.154 0 0 1-.008-.458.91.91 0 0 1 .079-.246l-.002.005C1.489 16.01-.202 17.498.021 18.782c.436 2.499 7.942 3.278 16.768 1.741 3.88-.675 7.368-1.686 10.022-2.819-.038.002-.076.006-.116.006-.604 0-1.143-.226-1.199-.844a2.187 2.187 0 0 1-.012-.223v-1.419c0-.061.007-.169.014-.224.072-.597.543-.843 1.197-.843.506 0 1.127.145 1.195.843.009.088.008.181.008.212v.134h-.874v-.2a.8.8 0 0 0-.011-.126c-.014-.071-.075-.236-.324-.236-.246 0-.31.165-.326.237a.755.755 0 0 0-.013.157v1.543a.719.719 0 0 0 .007.126c.004.024.048.237.335.237.284 0 .328-.213.332-.237.008-.042.008-.091.008-.126v-.478h-.344v-.515h1.216v.916c0 .062-.001.108-.012.223a.863.863 0 0 1-.146.416c2.815-1.337 4.454-2.8 4.234-4.066zM9.095 17.645l-.443-3.008h-.016l-.454 3.008h-.933l.628-3.398H9.4l.624 3.398h-.928zm4.489 0-.021-2.95h-.015l-.549 2.95h-.876l-.546-2.95h-.016l-.02 2.95h-.868l.075-3.398h1.396l.406 2.524h.02l.408-2.524h1.395l.075 3.398h-.865zm4.086-.658c-.093.658-.738.773-1.194.773-.757 0-1.225-.323-1.225-.981v-.268h.917l.001.334c0 .182.128.293.326.293.176 0 .28-.071.315-.216a.431.431 0 0 0-.006-.241c-.169-.423-1.36-.63-1.504-1.315a1.134 1.134 0 0 1-.008-.454c.101-.621.697-.751 1.177-.751.429 0 .742.094.929.281.14.14.211.332.211.571v.245h-.857v-.216c0-.185-.115-.292-.3-.292-.164 0-.263.073-.296.216a.447.447 0 0 0 .005.174l-.001-.003c.092.377 1.366.607 1.505 1.299.018.088.043.278.004.552zm3.175-.309c.001.064-.005.191-.008.224-.052.56-.453.844-1.187.844-.737 0-1.138-.285-1.19-.844a2.824 2.824 0 0 1-.008-.214v-2.442h.877v2.508a.592.592 0 0 0 .008.126c.011.056.066.237.314.237s.302-.181.314-.236a.816.816 0 0 0 .008-.127v-2.508h.874v2.431zm3.778.933h-1.22l-.819-2.691h-.014l.045 2.691h-.85v-3.363h1.271l.757 2.585h.018l-.045-2.585h.857v3.363z"/></symbol><symbol id="icon-shell" viewBox="0 0 32 32"><path d="m8.78 23.514-.535-4.331c-1.416-1.007-2.506-1.835-3.817-2.79-.619-4.562.524-7.037 2.202-9.386 2.087-2.653 5.443-4.635 9.459-4.635a11.876 11.876 0 0 1 9.365 4.719c1.856 2.517 2.852 5.684 2.129 9.428l-3.618 2.664-.535 4.331h-5.736c-.357.283-.839.545-1.605.566-.755-.021-1.227-.283-1.615-.566H8.78z"/><path fill="#fff" style="fill:var(--color15, #fff)" d="M16.089 17.505c-.304-4.038-.388-9.019-.64-13.014-.43-.105-1.038-.073-1.542.01-.503.157-.87.294-1.3.535.787 3.838 1.699 8.725 2.475 12.532-1.059-3.702-2.475-8.337-3.524-12.029-.503.105-.996.388-1.353.682-.377.294-.598.514-.944 1.038 1.521 3.251 3.345 7.393 4.876 10.623-1.773-2.936-3.922-6.806-5.705-9.721-.346.304-.608.524-.954 1.112-.294.472-.44 1.028-.503 1.563 1.951 2.381 4.279 5.233 6.24 7.603-2.045-1.972-4.562-4.509-6.586-6.481-.199.398-.325.734-.388 1.395-.073.64.052 1.405.189 1.867l3.954 2.936.419 3.262 4.352.031c.315.367.419.556.933.587a1.06 1.06 0 0 0 .902-.587h4.341l.44-3.272 3.922-2.916a5.511 5.511 0 0 0 .189-1.867c-.063-.692-.189-1.038-.357-1.405-2.034 1.961-4.562 4.499-6.586 6.471 1.971-2.349 4.279-5.212 6.25-7.614-.105-.535-.231-1.08-.545-1.552-.367-.587-.577-.807-.912-1.122-1.793 2.905-3.975 6.806-5.747 9.721 1.573-3.24 3.356-7.383 4.898-10.592-.335-.514-.577-.776-.912-1.049-.398-.304-.891-.587-1.374-.703-1.101 3.681-2.454 8.358-3.524 12.028.744-3.807 1.678-8.652 2.422-12.479-.377-.273-.744-.409-1.238-.556-.566-.105-1.122-.126-1.563-.052-.294 4.027-.304 8.998-.608 13.014z"/><path d="M4.071 28.128h2.035c-.031.451.189.556.294.629.115.042.965.084 1.384.01.168-.031.325-.094.325-.608 0-.22-.052-.461-.304-.514-.891-.073-1.762.021-2.653-.063-.891-.199-1.028-.43-1.08-1.133.063-.975.409-1.258 1.405-1.29a49.58 49.58 0 0 1 3.194.002l-.079-.002c1.059 0 1.384.409 1.384 1.301H8.109c0-.441-.084-.608-.304-.629a9.537 9.537 0 0 0-1.395.001l.032-.002c-.168 0-.388.084-.388.482 0 .377.094.472.346.504.766.031 1.542.042 2.297.094 1.258.074 1.3.629 1.342 1.217.021.839-.283 1.133-.503 1.269-.21.094-1.227.21-1.426.21H6.097a5.535 5.535 0 0 1-1.51-.199c-.462-.126-.514-.744-.514-1.279zm19.118 1.5h1.783v-4.446h-1.783v4.446zm2.978 0h1.762v-4.446h-1.762v4.446zM22.151 27.3a3.077 3.077 0 0 0-.133-.43l.007.021c-.304-.493-1.353-.493-2.37-.514-.765 0-1.909.021-2.244.346-.136.147-.21.357-.252.577-.052.262-.042.535-.042.661 0 .231.021 1.122.451 1.353.398.262 1.604.294 2.066.294.493 0 1.856-.052 2.056-.283.356-.126.44-.566.514-.912h-1.751c0 .346-.273.556-.818.524-.493.032-.776-.084-.776-.702l3.345.01c0-.304.011-.629-.052-.944zm-1.699.304h-1.594a.8.8 0 0 1 .052-.304c.115-.283.409-.294.723-.315.482 0 .692.115.776.315a.572.572 0 0 1 .042.304zm-9.365 2.024h1.741V27.74c.042-.262.105-.472.745-.472.608-.01.776.157.776.472v1.888h1.741V27.74c0-.619-.01-.954-.409-1.132-.357-.231-.871-.199-1.353-.199-.503 0-1.07.063-1.5.273v-1.5h-1.741v4.446z"/></symbol><symbol id="icon-sky_b" viewBox="0 0 32 32"><path style="fill:var(--color7, #000)" d="M32 16c0 8.837-7.163 16-16 16S0 24.837 0 16 7.163 0 16 0s16 7.163 16 16z"/><path fill="#fff" style="fill:var(--color6, #fff)" d="m18.468 14.744-2.886-.65c-1.097-.253-2.335-.61-2.335-1.661s.844-1.802 2.445-1.802c3.224 0 2.957 2.252 4.559 2.252.842 0 1.569-.47 1.569-1.34 0-2.017-3.207-3.505-5.906-3.505-2.929 0-6.004 1.216-6.004 4.578 0 1.619.551 3.367 3.691 4.167l3.898.988c1.18.298 1.529.973 1.529 1.582 0 1.011-1.049 2.084-2.84 2.084-3.501 0-3.012-2.814-4.888-2.814-.842 0-1.5.579-1.5 1.42 0 1.637 2.002 3.87 6.388 3.87 4.167 0 6.287-2.111 6.287-4.843 0-1.758-.845-3.611-4.007-4.325z"/></symbol><symbol id="icon-smart" viewBox="0 0 32 32"><path d="M23 0H9C7.346 0 6 1.346 6 3v26c0 1.654 1.346 3 3 3h14c1.654 0 3-1.346 3-3V3c0-1.654-1.346-3-3-3zM9 2h14a1 1 0 0 1 1 1v21H8V3a1 1 0 0 1 1-1zm14 28H9a1 1 0 0 1-1-1v-3h16v3a1 1 0 0 1-1 1z"/><path fill="#757575" style="fill:var(--color4, #757575)" d="M10.707 27.478c.391.365.391.956 0 1.321s-1.024.365-1.414 0c-.391-.365-.391-.956 0-1.321s1.024-.365 1.414 0z"/></symbol><symbol id="icon-tg_b" viewBox="0 0 32 32"><path style="fill:var(--color7, #000)" d="M32 16c0 8.837-7.163 16-16 16S0 24.837 0 16 7.163 0 16 0s16 7.163 16 16z"/><path fill="#fff" style="fill:var(--color6, #fff)" d="M7.339 15.725q6.979-3.041 9.307-4.01c4.432-1.843 5.358-2.163 5.953-2.175h.02c.224 0 .431.07.602.189l-.003-.002a.663.663 0 0 1 .227.429v.003a2.81 2.81 0 0 1 .026.639v-.009c-.24 2.53-1.28 8.646-1.808 11.472-.223 1.191-.664 1.597-1.091 1.637-.926.085-1.637-.613-2.53-1.201-1.405-.921-2.198-1.488-3.562-2.393-1.576-1.042-.554-1.609.344-2.541.235-.244 4.316-3.959 4.397-4.295a.32.32 0 0 0-.075-.283.371.371 0 0 0-.333-.03l.003-.001q-.21.046-6.73 4.449-.956.656-1.731.64c-.57-.013-1.665-.323-2.481-.595-.999-.324-1.786-.496-1.724-1.042q.055-.429 1.188-.88z"/></symbol><symbol id="icon-twit_b" viewBox="0 0 32 32"><path style="fill:var(--color7, #000)" d="M32 16c0 8.837-7.163 16-16 16S0 24.837 0 16 7.163 0 16 0s16 7.163 16 16z"/><path fill="#fff" style="fill:var(--color6, #fff)" d="M13.246 23.01c6.141 0 9.499-5.087 9.499-9.499 0-.149 0-.287-.01-.43a6.86 6.86 0 0 0 1.65-1.704l.015-.024a6.503 6.503 0 0 1-1.885.522l-.032.003a3.371 3.371 0 0 0 1.461-1.823l.007-.024c-.61.368-1.32.649-2.076.802l-.043.007a3.341 3.341 0 0 0-5.684 3.067l-.005-.023a9.468 9.468 0 0 1-6.866-3.47l-.013-.017a3.338 3.338 0 0 0 1.021 4.448l.012.008a3.298 3.298 0 0 1-1.532-.427l.017.009v.043a3.34 3.34 0 0 0 2.657 3.27l.022.004a3.347 3.347 0 0 1-1.528.053l.021.004a3.347 3.347 0 0 0 3.123 2.319h.003a6.637 6.637 0 0 1-4.132 1.432c-.285 0-.566-.018-.841-.052l.033.003a9.343 9.343 0 0 0 5.097 1.496h.01-.001z"/></symbol><symbol id="icon-twit_g" viewBox="0 0 32 32"><path d="M32 6.078c-1.19.522-2.458.868-3.78 1.036a6.523 6.523 0 0 0 2.886-3.626 13.11 13.11 0 0 1-4.16 1.588A6.574 6.574 0 0 0 22.154 3c-3.632 0-6.556 2.948-6.556 6.562 0 .52.044 1.02.152 1.496-5.454-.266-10.28-2.88-13.522-6.862a6.605 6.605 0 0 0-.898 3.316 6.57 6.57 0 0 0 2.914 5.452 6.479 6.479 0 0 1-2.964-.808v.072c0 3.188 2.274 5.836 5.256 6.446a6.548 6.548 0 0 1-1.72.216 5.8 5.8 0 0 1-1.242-.112c.85 2.598 3.262 4.508 6.13 4.57a13.182 13.182 0 0 1-8.134 2.798c-.538 0-1.054-.024-1.57-.09A18.469 18.469 0 0 0 10.064 29c12.072 0 18.672-10 18.672-18.668 0-.29-.01-.57-.024-.848A13.087 13.087 0 0 0 32 6.078z"/></symbol><symbol id="icon-twit_w" viewBox="0 0 32 32"><path fill="#fff" style="fill:var(--color6, #fff)" d="M32 6.078c-1.19.522-2.458.868-3.78 1.036a6.523 6.523 0 0 0 2.886-3.626 13.11 13.11 0 0 1-4.16 1.588A6.574 6.574 0 0 0 22.154 3c-3.632 0-6.556 2.948-6.556 6.562 0 .52.044 1.02.152 1.496-5.454-.266-10.28-2.88-13.522-6.862a6.605 6.605 0 0 0-.898 3.316 6.57 6.57 0 0 0 2.914 5.452 6.479 6.479 0 0 1-2.964-.808v.072c0 3.188 2.274 5.836 5.256 6.446a6.548 6.548 0 0 1-1.72.216 5.8 5.8 0 0 1-1.242-.112c.85 2.598 3.262 4.508 6.13 4.57a13.182 13.182 0 0 1-8.134 2.798c-.538 0-1.054-.024-1.57-.09A18.469 18.469 0 0 0 10.064 29c12.072 0 18.672-10 18.672-18.668 0-.29-.01-.57-.024-.848A13.087 13.087 0 0 0 32 6.078z"/></symbol><symbol id="icon-walmart" viewBox="0 0 32 32"><path d="M28.109 14.757c.178 0 .325-.093.345-.212l.176-1.99c0-.197-.23-.358-.52-.358s-.52.161-.52.358l.176 1.99c.019.12.166.212.344.212h-.001zm-1.076.622c.089-.154.083-.327-.012-.404l-1.636-1.147c-.17-.098-.425.02-.57.271s-.119.531.05.629l1.811.843c.113.042.268-.039.356-.193l-.001.001zm2.152-.001c.089.154.243.235.356.193l1.811-.843c.171-.098.195-.378.051-.629-.145-.251-.401-.37-.57-.271l-1.636 1.147c-.094.077-.1.25-.012.404l-.001-.001zm-1.076 1.865c.178 0 .325.092.345.212l.176 1.99c0 .197-.23.358-.52.358s-.52-.161-.52-.358l.176-1.99c.019-.12.166-.212.344-.212h-.001zm1.076-.621c.089-.154.243-.235.356-.192l1.811.843c.171.099.195.379.051.63-.145.25-.401.369-.57.271l-1.636-1.146c-.094-.077-.1-.251-.012-.405h-.001zm-2.152-.001c.089.154.083.327-.012.405l-1.636 1.146c-.17.098-.425-.021-.57-.271s-.119-.531.05-.63l1.811-.843c.113-.042.268.038.356.192h-.001z"/><path d="M17.792 17.023a.619.619 0 0 1-.022.179.627.627 0 0 1-.605.424c-.248 0-.445-.141-.445-.439 0-.456.502-.581 1.072-.578v.413zm.895-.794c0-.751-.321-1.412-1.406-1.412-.557 0-.999.156-1.24.296l.177.604c.22-.139.572-.254.904-.254.55-.002.64.312.64.512v.047c-1.199-.002-1.957.413-1.957 1.259 0 .517.386 1.001 1.057 1.001.412 0 .758-.165.965-.429h.02s.137.573.892.354a4.921 4.921 0 0 1-.052-.799v-1.18zM0 13.793s.784 3.211.909 3.733c.146.608.409.832 1.167.681l.489-1.991c.124-.495.207-.848.287-1.35h.014c.056.508.136.857.238 1.352 0 0 .199.904.301 1.379s.387.774 1.13.611l1.166-4.414H4.76l-.398 1.908c-.107.555-.204.99-.279 1.498H4.07c-.068-.503-.155-.92-.263-1.461l-.414-1.945h-.981l-.443 1.896c-.125.576-.243 1.041-.318 1.532h-.014a53.781 53.781 0 0 0-.289-1.605s-.263-1.356-.356-1.823H0zm7.482 3.23a.619.619 0 0 1-.022.179.627.627 0 0 1-.605.424c-.248 0-.445-.141-.445-.439 0-.456.501-.581 1.072-.578v.413zm.895-.794c0-.751-.321-1.412-1.405-1.412-.557 0-.999.156-1.24.296l.176.604c.22-.139.572-.254.904-.254.551-.002.641.312.641.512v.047c-1.2-.002-1.958.413-1.958 1.259 0 .517.386 1.001 1.057 1.001.413 0 .758-.165.965-.429h.02s.137.573.892.354a4.921 4.921 0 0 1-.052-.799v-1.18zm1.494 1.041v-3.477h-.896v4.414h.896v-.937zm11.728-3.477v3.256c0 .449.085.763.265.956.158.168.418.277.73.277.265 0 .526-.051.649-.096l-.012-.7c-.092.022-.197.04-.34.04-.305 0-.408-.196-.408-.599v-1.246h.781v-.845h-.781v-1.044h-.884zm-2.314 1.098v3.316h.925v-1.698c0-.092.006-.172.02-.245.068-.356.34-.583.731-.583.107 0 .184.012.267.023v-.868a.898.898 0 0 0-.204-.02c-.345 0-.738.223-.902.7h-.025v-.626h-.811zm-8.786 0v3.316h.901v-1.944c0-.091.011-.188.042-.271.075-.196.257-.425.548-.425.364 0 .534.307.534.751v1.89h.9V16.24c0-.087.012-.192.038-.269a.567.567 0 0 1 .54-.404c.369 0 .545.302.545.824v1.817h.901v-1.953c0-1.03-.523-1.438-1.113-1.438-.261 0-.468.065-.654.18a1.406 1.406 0 0 0-.42.413h-.013c-.142-.357-.477-.593-.914-.593-.561 0-.813.284-.966.525h-.013v-.451H10.5z"/><path fill="#fdbb30" style="fill:var(--color16, #fdbb30)" d="M31.807 18.046h.014c.018 0 .03-.007.03-.019 0-.013-.011-.019-.028-.019l-.016.001v.037zm-.002.089h-.048v-.156a.388.388 0 0 1 .069-.006c.035 0 .051.005.063.013.01.007.017.018.017.034s-.015.03-.036.035v.002c.018.005.027.018.032.04s.008.032.011.038h-.054c-.005-.006-.008-.02-.011-.033-.003-.016-.011-.024-.027-.024h-.016v.057zm.02-.207c-.069 0-.121.056-.121.127 0 .07.052.126.123.126.071.001.123-.057.123-.128s-.052-.126-.124-.126h-.001zm.003-.042a.17.17 0 1 1-.002.339.172.172 0 0 1-.175-.17c0-.093.078-.169.175-.169h.001z"/></symbol></defs></svg>